<svg xmlns="http://www.w3.org/2000/svg" width="32" height="32" viewBox="0 0 32 32">
    <g fill="none" fill-rule="evenodd">
        <g fill="#0040A8" fill-rule="nonzero">
            <g>
                <path d="M13 4l.117.007c.497.057.883.48.883.993 0 .552-.448 1-1 1H9l-.117.007C8.386 6.064 8 6.487 8 7v17h13v-8l.007-.117c.057-.497.48-.883.993-.883.552 0 1 .448 1 1v12l-.005.176C22.904 29.751 21.598 31 20 31H9l-.176-.005C7.249 30.904 6 29.598 6 28V7l.005-.176C6.096 5.249 7.402 4 9 4h4zm8 22H8v2l.007.117c.057.497.48.883.993.883h11l.117-.007c.497-.057.883-.48.883-.993v-2zM18 4c.513 0 .936.386.993.883L19 5v5.585l1.293-1.292c.36-.36.928-.388 1.32-.083l.094.083c.36.36.388.928.083 1.32l-.083.094-3 3c-.028.029-.059.055-.09.08l.09-.08c-.035.036-.073.068-.112.097-.024.018-.049.034-.074.05l-.037.021c-.02.011-.04.022-.06.031l-.053.023-.06.021-.045.014-.065.016-.053.009c-.02.003-.04.006-.062.007-.018.002-.035.003-.053.003L18 14h-.032l-.054-.004L18 14c-.05 0-.1-.004-.149-.011l-.052-.01c-.022-.004-.043-.009-.065-.015l-.046-.014-.06-.021-.051-.023-.061-.03-.037-.022c-.025-.016-.05-.032-.074-.05l-.018-.014c-.035-.028-.066-.054-.094-.083l-3-3c-.39-.39-.39-1.024 0-1.414.36-.36.928-.388 1.32-.083l.094.083L17 10.585V5c0-.552.448-1 1-1zm7-2h.02c.023 0 .046.002.07.004L25 2c.05 0 .1.004.149.011l.052.01c.022.004.043.009.065.015l.046.014.06.021.051.023.061.03.037.022c.025.016.05.032.074.05l.018.014c.007.005.01.007.012.01l.082.073 3 3c.39.39.39 1.024 0 1.414-.36.36-.928.388-1.32.083l-.094-.083L26 5.414V11c0 .552-.448 1-1 1-.513 0-.936-.386-.993-.883L24 11V5.414l-1.293 1.293c-.36.36-.928.388-1.32.083l-.094-.083c-.36-.36-.388-.928-.083-1.32l.083-.094 3-3 .082-.073.008-.007-.09.08c.035-.036.073-.068.112-.097.024-.018.049-.034.074-.05l.037-.021c.02-.011.04-.022.06-.031l.053-.023.06-.021.045-.014.065-.016.053-.009.058-.007.072-.004H25z" transform="translate(-592 -3545) translate(592 3545)"/>
            </g>
        </g>
    </g>
</svg>
