<svg xmlns="http://www.w3.org/2000/svg" width="32" height="32" viewBox="0 0 32 32">
    <g fill="none" fill-rule="evenodd">
        <g fill="#0040A8" fill-rule="nonzero">
            <g>
                <path d="M5.848 3.868l-.826.826c-2.222 2.222-2.656 5.654-1.087 8.35l.164.267c3.887 5.753 8.836 10.703 14.584 14.587l.069.042c2.696 1.718 6.266 1.326 8.554-.961l.825-.826c1.158-1.16 1.158-3.037 0-4.196l-3.478-3.477c-1.093-1.09-2.835-1.16-4.009-.173l-.157.143c-.213.212-.459.314-.715.314-.257 0-.503-.102-.684-.283l-5.566-5.567c-.355-.356-.378-.925-.057-1.306l.087-.093c.527-.525.84-1.28.84-2.067 0-.787-.313-1.542-.87-2.099l-3.477-3.48c-1.16-1.158-3.038-1.158-4.197 0zM8.63 5.283l3.476 3.48c.183.183.285.428.285.685 0 .256-.102.502-.284.683l-.145.157c-1.016 1.206-.946 2.948.144 4.04l5.567 5.567c.556.556 1.31.869 2.098.869.715 0 1.404-.259 1.942-.724l.25-.23c.35-.294.919-.27 1.275.085l3.478 3.476c.377.377.377.99 0 1.368l-.826.825c-1.568 1.569-3.986 1.882-5.896.791l-.248-.15c-5.277-3.568-9.893-8.121-13.572-13.404l-.42-.612c-1.222-1.921-.944-4.456.681-6.08l.826-.826c.377-.377.99-.377 1.369 0z" transform="translate(-176 -3353) translate(176 3353)"/>
            </g>
        </g>
    </g>
</svg>
