<svg xmlns="http://www.w3.org/2000/svg" width="32" height="32" viewBox="0 0 32 32">
    <g fill="none" fill-rule="evenodd">
        <g fill="#0040A8" fill-rule="nonzero">
            <g>
                <path d="M16 2c7.732 0 14 6.268 14 14s-6.268 14-14 14S2 23.732 2 16 8.268 2 16 2zm0 2C9.373 4 4 9.373 4 16s5.373 12 12 12 12-5.373 12-12S22.627 4 16 4zm0 18c.828 0 1.5.672 1.5 1.5S16.828 25 16 25s-1.5-.672-1.5-1.5.672-1.5 1.5-1.5zm4.872-11.122c.57 2.477-.809 4.99-3.206 5.837l-.526.182-.146.04.003.035L17 17v2c0 .552-.448 1-1 1-.513 0-.936-.386-.994-.883L15 19v-2c0-1.035.472-1.582 1.378-1.95l.316-.115.306-.106c1.438-.508 2.265-2.016 1.923-3.502-.343-1.487-1.746-2.48-3.262-2.308-1.457.166-2.572 1.358-2.656 2.806L13 12c0 .552-.448 1-1 1s-1-.448-1-1c0-2.543 1.909-4.68 4.435-4.968 2.526-.287 4.866 1.368 5.437 3.846z" transform="translate(-384 -6304) translate(384 6304)"/>
            </g>
        </g>
    </g>
</svg>
