<svg xmlns="http://www.w3.org/2000/svg" width="32" height="32" viewBox="0 0 32 32">
    <g fill="none" fill-rule="evenodd">
        <g fill="#0040A8" fill-rule="nonzero">
            <g>
                <path d="M16.327 1.003L16.013 1C7.761.97 1.044 7.679 1 15.99l.005.412c.07 2.747.898 5.414 2.385 7.708l.164.246-1.581 4.727-.03.106c-.164.736.538 1.402 1.282 1.164l4.93-1.576.21.129c4.496 2.67 10.068 2.803 14.702.308 4.846-2.61 7.888-7.677 7.933-13.21-.043-8.208-6.574-14.847-14.673-15.001zM16.014 3C23.154 2.987 28.962 8.799 29 16c-.039 4.792-2.68 9.19-6.882 11.453-4.2 2.261-9.289 2.03-13.27-.604l-.111-.064c-.23-.113-.497-.134-.744-.055l-3.498 1.117 1.116-3.333c.103-.307.05-.645-.14-.907-1.61-2.205-2.476-4.872-2.471-7.61C3.038 8.79 8.86 2.974 16.014 3z" transform="translate(-1008 -3400) translate(1008 3400)"/>
                <path d="M9.338 8.754c1.077-1.159 3.558-.966 4.188.463l.715 1.683.3.687.02.053v.003l.129.18c.282.502.282 1.112.018 1.579l-.043.082-.087.146c-.051.077-.106.147-.168.214l-.482.446.206.288c1.042 1.404 2.433 2.536 4.073 3.303l.173.077.07-.09c.133-.174.284-.381.41-.567l.089-.135c.522-.805 1.217-.883 2.029-.578l.21.087.951.436 1.756.828.223.113c.033.018.065.036.096.055.217.131.39.283.523.505.04.067.072.138.094.21l.024.092.019.052c.237.75.139 1.562-.235 2.174l-.1.149c-2.276 3.926-7.71 3.378-12.299-.177-4.685-3.628-6.393-8.765-2.902-12.358zm2.342 1.265l-.105-.013c-.217-.017-.657-.013-.787.126-2.474 2.546-1.191 6.403 2.677 9.4 3.69 2.857 7.68 3.312 9.298.834l.1-.162c.082-.116.128-.249.135-.384l-.002-.093-1.899-.895-.657-.302-.044.066c-.083.118-.17.238-.255.353l-.25.324c-.04.05-.079.096-.115.138l-.102.116c-.505.551-1.148.662-1.801.395l-.14-.063c-2.36-1.005-4.352-2.687-5.725-4.848-.23-.381-.296-.8-.173-1.203.085-.28.214-.46.415-.674l.082-.084.235-.224.25-.231-.095-.189-.174-.38-.851-2.001-.017-.006z" transform="translate(-1008 -3400) translate(1008 3400)"/>
            </g>
        </g>
    </g>
</svg>
