<svg width="32" height="32" viewBox="0 0 32 32" fill="none" xmlns="http://www.w3.org/2000/svg">
<path fill-rule="evenodd" clip-rule="evenodd" d="M19.1864 11.4188C19.5074 10.9694 20.1319 10.8653 20.5813 11.1863L25.9063 14.9898C27.2203 15.9284 28.0001 17.4437 28.0001 19.0585V23.7639L30.8945 29.5528C31.1415 30.0468 30.9413 30.6474 30.4473 30.8944C29.9533 31.1414 29.3527 30.9412 29.1057 30.4472L26.1057 24.4472C26.0362 24.3084 26.0001 24.1552 26.0001 24V19.0585C26.0001 18.0896 25.5322 17.1804 24.7438 16.6173L19.4189 12.8138C18.9694 12.4928 18.8654 11.8682 19.1864 11.4188Z" fill="#0043A9"/>
<path fill-rule="evenodd" clip-rule="evenodd" d="M19.5372 15.3918L23.0412 18.7611C23.4393 19.1439 23.4517 19.777 23.0689 20.1751C22.6861 20.5732 22.0531 20.5856 21.655 20.2028L18.147 16.8296C18.1425 16.8274 18.1354 16.8243 18.1252 16.8205C18.0853 16.8056 18.0199 16.7895 17.9292 16.7816C17.7389 16.7651 17.5376 16.7931 17.4105 16.8347C17.1758 16.9114 17.0168 17.0895 16.9708 17.2609C16.9336 17.3995 16.9151 17.6091 16.9402 17.8068C16.9634 17.9887 17.007 18.0554 17.007 18.0554C17.007 18.0554 17.0046 18.0534 17.0003 18.049C17.0163 18.0651 17.0318 18.0816 17.0467 18.0987L20.753 22.3422C20.9121 22.5244 20.9998 22.7581 20.9998 23V25.5245C20.9998 25.6808 21.0365 25.835 21.1068 25.9746L22.9037 29.5397C23.1522 30.0328 22.9539 30.6342 22.4607 30.8827C21.9675 31.1313 21.3662 30.933 21.1177 30.4398L19.3209 26.8747C19.1098 26.4559 18.9998 25.9935 18.9998 25.5245V23.3752L15.5585 19.435C15.1607 19.02 15.0094 18.4774 14.9562 18.0592C14.8992 17.6115 14.9326 17.1398 15.0391 16.7428C15.2803 15.8432 15.9899 15.195 16.7889 14.9337C17.1785 14.8063 17.6505 14.7499 18.1023 14.7891C18.5304 14.8263 19.1045 14.9649 19.5372 15.3918Z" fill="#0043A9"/>
<path fill-rule="evenodd" clip-rule="evenodd" d="M5 24C5 23.4477 5 23 5 23H13.9091C14.5116 23 15 23.4477 15 24C15 24.5523 14.5116 25 13.9091 25H5C5 25 5 24.5523 5 24Z" fill="#0043A9"/>
<path fill-rule="evenodd" clip-rule="evenodd" d="M3 4C3 2.34315 4.34315 1 6 1H18C19.6569 1 21 2.34315 21 4V16.5C21 17.0523 20.5523 17.5 20 17.5C19.4477 17.5 19 17.0523 19 16.5V4C19 3.44772 18.5523 3 18 3H6C5.44772 3 5 3.44772 5 4V26C5 26.5523 5.44772 27 6 27H16C16.5523 27 17 27.4477 17 28C17 28.5523 16.5523 29 16 29H6C4.34315 29 3 27.6569 3 26V4Z" fill="#0043A9"/>
<path fill-rule="evenodd" clip-rule="evenodd" d="M19.1864 11.4188C19.5074 10.9694 20.1319 10.8653 20.5813 11.1863L25.9063 14.9898C27.2203 15.9284 28.0001 17.4437 28.0001 19.0585V23.7639L30.8945 29.5528C31.1415 30.0468 30.9413 30.6474 30.4473 30.8944C29.9533 31.1414 29.3527 30.9412 29.1057 30.4472L26.1057 24.4472C26.0362 24.3084 26.0001 24.1552 26.0001 24V19.0585C26.0001 18.0896 25.5322 17.1804 24.7438 16.6173L19.4189 12.8138C18.9694 12.4928 18.8654 11.8682 19.1864 11.4188Z" fill="#0043A9"/>
<path fill-rule="evenodd" clip-rule="evenodd" d="M19.5372 15.3918L23.0412 18.7611C23.4393 19.1439 23.4517 19.777 23.0689 20.1751C22.6861 20.5732 22.0531 20.5856 21.655 20.2028L18.147 16.8296C18.1425 16.8274 18.1354 16.8243 18.1252 16.8205C18.0853 16.8056 18.0199 16.7895 17.9292 16.7816C17.7389 16.7651 17.5376 16.7931 17.4105 16.8347C17.1758 16.9114 17.0168 17.0895 16.9708 17.2609C16.9336 17.3995 16.9151 17.6091 16.9402 17.8068C16.9634 17.9887 17.007 18.0554 17.007 18.0554C17.007 18.0554 17.0046 18.0534 17.0003 18.049C17.0163 18.0651 17.0318 18.0816 17.0467 18.0987L20.753 22.3422C20.9121 22.5244 20.9998 22.7581 20.9998 23V25.5245C20.9998 25.6808 21.0365 25.835 21.1068 25.9746L22.9037 29.5397C23.1522 30.0328 22.9539 30.6342 22.4607 30.8827C21.9675 31.1313 21.3662 30.933 21.1177 30.4398L19.3209 26.8747C19.1098 26.4559 18.9998 25.9935 18.9998 25.5245V23.3752L15.5585 19.435C15.1607 19.02 15.0094 18.4774 14.9562 18.0592C14.8992 17.6115 14.9326 17.1398 15.0391 16.7428C15.2803 15.8432 15.9899 15.195 16.7889 14.9337C17.1785 14.8063 17.6505 14.7499 18.1023 14.7891C18.5304 14.8263 19.1045 14.9649 19.5372 15.3918Z" fill="#0043A9"/>
</svg>
