<svg xmlns="http://www.w3.org/2000/svg" width="32" height="32" viewBox="0 0 32 32">
    <g fill="none" fill-rule="evenodd">
        <g fill="#0040A8" fill-rule="nonzero">
            <g>
                <path d="M23 16c3.866 0 7 3.134 7 7s-3.134 7-7 7-7-3.134-7-7 3.134-7 7-7zm0 2c-2.761 0-5 2.239-5 5s2.239 5 5 5 5-2.239 5-5-2.239-5-5-5zM20 2c.513 0 .936.386.993.883L21 3v2h2l.176.005C24.751 5.096 26 6.402 26 8v5.389l-.007.117c-.057.497-.48.883-.993.883-.552 0-1-.448-1-1V12H4v11l.007.117c.057.497.48.883.993.883h8.016l.116.007c.498.057.884.48.884.993 0 .552-.448 1-1 1H5l-.176-.005C3.249 25.904 2 24.598 2 23V8l.005-.176C2.096 6.249 3.402 5 5 5h2V3c0-.552.448-1 1-1 .513 0 .936.386.993.883L9 3v2h10V3c0-.552.448-1 1-1zm5.65 18.724c.387.33.46.894.186 1.309l-.075.1-3 3.516c-.388.455-1.076.464-1.479.047L21.2 25.6l-1.501-2c-.332-.441-.243-1.068.2-1.4.407-.306.972-.253 1.318.104l.081.096.752 1 2.19-2.565c.358-.42.989-.47 1.41-.111zM7 7H5l-.117.007C4.386 7.064 4 7.487 4 8v2h20V8l-.007-.117C23.936 7.386 23.513 7 23 7h-2v1c0 .552-.448 1-1 1-.513 0-.936-.386-.993-.883L19 8V7H9v1c0 .552-.448 1-1 1-.513 0-.936-.386-.993-.883L7 8V7z" transform="translate(-800 -1280) translate(800 1280)"/>
            </g>
        </g>
    </g>
</svg>
