<svg xmlns="http://www.w3.org/2000/svg" width="32" height="32" viewBox="0 0 32 32">
    <g fill="none" fill-rule="evenodd">
        <g fill="#0040A8" fill-rule="nonzero">
            <g>
                <path d="M22 11c1.657 0 3 1.343 3 3v12c0 1.657-1.343 3-3 3H4c-1.657 0-3-1.343-3-3V14c0-1.657 1.343-3 3-3zm1 7H3v8c0 .513.386.936.883.993L4 27h18c.552 0 1-.448 1-1v-8zm-12 4c.552 0 1 .448 1 1 0 .513-.386.936-.883.993L11 24H6c-.552 0-1-.448-1-1 0-.513.386-.936.883-.993L6 22h5zM28 3c1.598 0 2.904 1.249 2.995 2.824L31 6v12.087C31 19.696 29.696 21 28.087 21c-.552 0-1-.448-1-1 0-.513.386-.936.883-.993l.117-.007c.468 0 .854-.352.907-.807l.006-.106V9H8c-.513 0-.936-.386-.993-.883L7 8V6c0-1.598 1.249-2.904 2.824-2.995L10 3h18zm-6 10H4c-.552 0-1 .448-1 1v2h20v-2c0-.513-.386-.936-.883-.993L22 13zm6-8H10c-.513 0-.936.386-.993.883L9 6v1h20V6c0-.513-.386-.936-.883-.993L28 5z" transform="translate(-592 -4464) translate(592 4464)"/>
            </g>
        </g>
    </g>
</svg>
