<svg width="32" height="32" viewBox="0 0 32 32" fill="none" xmlns="http://www.w3.org/2000/svg">
<path fill-rule="evenodd" clip-rule="evenodd" d="M18.4976 14.9196C17.3371 15.4998 17.0001 16.1163 17.0001 16.5C17.0001 16.8837 17.3371 17.5002 18.4976 18.0804C19.5982 18.6308 21.1887 19 23.0001 19C24.8115 19 26.402 18.6308 27.5026 18.0804C28.663 17.5002 29.0001 16.8837 29.0001 16.5C29.0001 16.1163 28.663 15.4998 27.5026 14.9196C26.402 14.3692 24.8115 14 23.0001 14C21.1887 14 19.5982 14.3692 18.4976 14.9196ZM17.6031 13.1307C19.036 12.4143 20.9455 12 23.0001 12C25.0547 12 26.9642 12.4143 28.397 13.1307C29.7701 13.8172 31.0001 14.9507 31.0001 16.5C31.0001 18.0493 29.7701 19.1828 28.397 19.8693C26.9642 20.5857 25.0547 21 23.0001 21C20.9455 21 19.036 20.5857 17.6031 19.8693C16.2301 19.1828 15.0001 18.0493 15.0001 16.5C15.0001 14.9507 16.2301 13.8172 17.6031 13.1307Z" fill="#0040A8"/>
<path fill-rule="evenodd" clip-rule="evenodd" d="M4.49762 20.9196C3.33718 21.4998 3.00016 22.1163 3.00016 22.5C3.00016 22.8837 3.33718 23.5002 4.49762 24.0804C5.59824 24.6308 7.18872 25 9.00013 25C10.8115 25 12.402 24.6308 13.5026 24.0804C14.6631 23.5002 15.0001 22.8837 15.0001 22.5C15.0001 22.1163 14.6631 21.4998 13.5026 20.9196C12.402 20.3692 10.8115 20 9.00013 20C7.18872 20 5.59824 20.3692 4.49762 20.9196ZM3.60319 19.1307C5.03605 18.4143 6.94556 18 9.00013 18C11.0547 18 12.9642 18.4143 14.3971 19.1307C15.7701 19.8172 17.0001 20.9507 17.0001 22.5C17.0001 24.0493 15.7701 25.1828 14.3971 25.8693C12.9642 26.5857 11.0547 27 9.00013 27C6.94556 27 5.03605 26.5857 3.60319 25.8693C2.23013 25.1828 1.00016 24.0493 1.00016 22.5C1.00016 20.9507 2.23013 19.8172 3.60319 19.1307Z" fill="#0040A8"/>
<path fill-rule="evenodd" clip-rule="evenodd" d="M16.0001 19C16.5524 19 17.0001 19.4477 17.0001 20C17.0001 20.591 17.4283 21.3213 18.5464 21.9603C19.6362 22.583 21.2087 23 23.0001 23C24.7915 23 26.3639 22.583 27.4538 21.9603C28.5719 21.3213 29.0001 20.591 29.0001 20C29.0001 19.4477 29.4478 19 30.0001 19C30.5523 19 31.0001 19.4477 31.0001 20C31.0001 21.6183 29.8614 22.888 28.4461 23.6967C27.0025 24.5216 25.075 25 23.0001 25C20.9252 25 18.9976 24.5216 17.5541 23.6967C16.1388 22.888 15.0001 21.6183 15.0001 20C15.0001 19.4477 15.4478 19 16.0001 19Z" fill="#0040A8"/>
<path fill-rule="evenodd" clip-rule="evenodd" d="M16.0001 16C16.5524 16 17.0001 16.4477 17.0001 17V24.6667C17.0001 24.9787 17.3007 25.5592 18.4802 26.1209C19.5851 26.6471 21.1819 27 23.0001 27C24.8182 27 26.4151 26.6471 27.52 26.1209C28.6995 25.5592 29.0001 24.9787 29.0001 24.6667V17C29.0001 16.4477 29.4478 16 30.0001 16C30.5523 16 31.0001 16.4477 31.0001 17V24.6667C31.0001 26.1958 29.7338 27.2819 28.3799 27.9266C26.9514 28.6068 25.0482 29 23.0001 29C20.9519 29 19.0488 28.6068 17.6203 27.9266C16.2663 27.2819 15.0001 26.1958 15.0001 24.6667V17C15.0001 16.4477 15.4478 16 16.0001 16Z" fill="#0040A8"/>
<path fill-rule="evenodd" clip-rule="evenodd" d="M2.00016 22.0352C2.55244 22.0352 3.00016 22.4829 3.00016 23.0352V26.6666C3.00016 26.9786 3.30076 27.5592 4.48021 28.1208C5.58514 28.647 7.18197 28.9999 9.00013 28.9999C10.8183 28.9999 12.4151 28.647 13.5201 28.1208C14.6995 27.5592 15.0001 26.9786 15.0001 26.6666L15.0001 23.0352C15.0001 22.4829 15.4478 22.0352 16.0001 22.0352C16.5524 22.0352 17.0001 22.4829 17.0001 23.0352L17.0001 26.6666C17.0001 28.1957 15.7339 29.2818 14.3799 29.9266C12.9515 30.6068 11.0483 30.9999 9.00013 30.9999C6.95197 30.9999 5.04881 30.6068 3.62034 29.9266C2.26638 29.2818 1.00016 28.1957 1.00016 26.6666V23.0352C1.00016 22.4829 1.44787 22.0352 2.00016 22.0352Z" fill="#0040A8"/>
<path fill-rule="evenodd" clip-rule="evenodd" d="M8.00006 1.5C8.55235 1.5 9.00006 1.94772 9.00006 2.5V3.01321H11.0001C11.5523 3.01321 12.0001 3.46093 12.0001 4.01321C12.0001 4.5655 11.5523 5.01321 11.0001 5.01321H7.79755C7.6557 5.01321 7.52074 5.00973 7.39152 5.00641H7.39152H7.39152C7.00644 4.99649 6.6724 4.98788 6.35922 5.07652C6.18884 5.12474 6.12161 5.18175 6.09288 5.21673C6.07211 5.24201 6.00006 5.33939 6.00006 5.63092C6.00006 5.98084 6.20508 6.33012 6.71611 6.73277C6.96208 6.92657 7.24065 7.10178 7.52922 7.272C7.59796 7.31255 7.67214 7.3555 7.74839 7.39964C7.95823 7.52113 8.18374 7.65169 8.35445 7.76616C8.45818 7.8357 8.59316 7.90825 8.79369 8.01604C8.88662 8.06599 8.99364 8.1235 9.11814 8.1918C9.46978 8.38468 9.89868 8.6331 10.3106 8.95036C11.1377 9.58743 12.0001 10.5889 12.0001 12.1018C12.0001 12.8378 11.7902 13.4649 11.3807 13.951C10.9829 14.423 10.4702 14.6751 10.0125 14.8122C9.67496 14.9134 9.31876 14.9623 9.00006 14.9845V15.5C9.00006 16.0523 8.55235 16.5 8.00006 16.5C7.44778 16.5 7.00006 16.0523 7.00006 15.5V14.9891H5.00006C4.44778 14.9891 4.00006 14.5414 4.00006 13.9891C4.00006 13.4368 4.44778 12.9891 5.00006 12.9891H7.9986C8.08666 12.9891 8.17866 12.9914 8.27355 12.9938C8.63963 13.003 9.04856 13.0132 9.43853 12.8964C9.65578 12.8313 9.78035 12.7463 9.85115 12.6623C9.91014 12.5923 10.0001 12.4442 10.0001 12.1018C10.0001 11.4577 9.66325 10.9762 9.09018 10.5348C8.80199 10.3129 8.48053 10.1232 8.1563 9.94533C8.08928 9.90856 8.01663 9.86954 7.94146 9.82918L7.94125 9.82906C7.69944 9.69919 7.43156 9.55532 7.24064 9.42731C7.12748 9.35143 6.99342 9.27386 6.81488 9.17054L6.81468 9.17043L6.81458 9.17037C6.726 9.11911 6.62646 9.06151 6.51309 8.99464C6.20174 8.81098 5.8312 8.58176 5.47833 8.30373C4.79168 7.76271 4.00006 6.89871 4.00006 5.63092C4.00006 4.97878 4.17373 4.40211 4.54753 3.94713C4.91336 3.50185 5.38955 3.27239 5.81457 3.1521C6.20242 3.04234 6.63331 3.00778 7.00006 3.00058V2.5C7.00006 1.94772 7.44778 1.5 8.00006 1.5Z" fill="#0040A8"/>
</svg>
