<svg width="32" height="32" viewBox="0 0 32 32" fill="none" xmlns="http://www.w3.org/2000/svg">
<path fill-rule="evenodd" clip-rule="evenodd" d="M10.7072 4.70711C11.0978 4.31658 11.0978 3.68342 10.7072 3.29289C10.3167 2.90237 9.68354 2.90237 9.29302 3.29289L3.29302 9.29289C2.90249 9.68342 2.90249 10.3166 3.29302 10.7071L9.29302 16.7071C9.68354 17.0976 10.3167 17.0976 10.7072 16.7071C11.0978 16.3166 11.0978 15.6834 10.7072 15.2929L6.41434 11H28.0001C28.5524 11 29.0001 10.5523 29.0001 10C29.0001 9.44772 28.5524 9 28.0001 9H6.41434L10.7072 4.70711ZM21.293 16.7071C20.9025 16.3166 20.9025 15.6834 21.293 15.2929C21.6835 14.9024 22.3167 14.9024 22.7072 15.2929L28.7072 21.2929C29.0978 21.6834 29.0978 22.3166 28.7072 22.7071L22.7072 28.7071C22.3167 29.0976 21.6835 29.0976 21.293 28.7071C20.9025 28.3166 20.9025 27.6834 21.293 27.2929L25.5859 23H4.00012C3.44784 23 3.00012 22.5523 3.00012 22C3.00012 21.4477 3.44784 21 4.00012 21H25.5859L21.293 16.7071Z" fill="#0043A9"/>
</svg>
