<svg xmlns="http://www.w3.org/2000/svg" width="32" height="32" viewBox="0 0 32 32">
    <g fill="none" fill-rule="evenodd">
        <g fill="#0040A8" fill-rule="nonzero">
            <g>
                <path d="M16 1c2.652 0 5.196 1.054 7.071 2.929C24.946 5.804 26 8.348 26 11l-.005.099C28.28 11.56 30 13.579 30 16v4c0 2.064-1.251 3.836-3.036 4.6-.288 2.408-2.287 4.29-4.747 4.395L22 29h-2.171c-.412 1.166-1.523 2-2.829 2h-2c-1.574 0-2.877-1.216-2.994-2.814L12 28c0-1.657 1.343-3 3-3h2c1.293 0 2.403.82 2.823 2H22c1.306 0 2.417-.834 2.829-2H24c-1.105 0-2-.895-2-2V13c0-1.105.895-2 2-2 0-2.122-.843-4.157-2.343-5.657S18.122 3 16 3c-4.335 0-7.865 3.448-7.996 7.75L8 11c1.105 0 2 .895 2 2v10c0 1.105-.895 2-2 2H7c-2.761 0-5-2.239-5-5v-4c0-2.42 1.72-4.44 4.005-4.901C6.002 11.068 6 11.034 6 11 6 5.477 10.477 1 16 1zm1 26h-2c-.552 0-1 .448-1 .963l.003.113c.038.519.473.924.997.924h2c.552 0 1-.448 1-.963l-.003-.113C17.96 27.405 17.524 27 17 27zM8 13H7c-1.657 0-3 1.343-3 3v4c0 1.657 1.343 3 3 3h1V13zm17 0h-1v10h1c1.657 0 3-1.343 3-3v-4c0-1.657-1.343-3-3-3z" transform="translate(-176 -1280) translate(176 1280)"/>
            </g>
        </g>
    </g>
</svg>
