<svg xmlns="http://www.w3.org/2000/svg" width="32" height="32" viewBox="0 0 32 32">
    <g fill="none" fill-rule="evenodd">
        <g fill="#0040A8" fill-rule="nonzero">
            <g>
                <path d="M28.5 5C29.88 5 31 6.12 31 7.5v17c0 1.38-1.12 2.5-2.5 2.5h-25C2.12 27 1 25.88 1 24.5v-17C1 6.12 2.12 5 3.5 5zm.5 7H3v12.5c0 .245.177.45.41.492L3.5 25h25c.276 0 .5-.224.5-.5V12zm-17 8c.552 0 1 .448 1 1 0 .513-.386.936-.883.993L12 22H6c-.552 0-1-.448-1-1 0-.513.386-.936.883-.993L6 20h6zm2-4c.552 0 1 .448 1 1 0 .513-.386.936-.883.993L14 18H6c-.552 0-1-.448-1-1 0-.513.386-.936.883-.993L6 16h8zm14.5-9h-25c-.276 0-.5.224-.5.5V10h26V7.5c0-.245-.177-.45-.41-.492L28.5 7z" transform="translate(-384 -4464) translate(384 4464)"/>
            </g>
        </g>
    </g>
</svg>
