<svg xmlns="http://www.w3.org/2000/svg" width="32" height="32" viewBox="0 0 32 32">
    <g fill="none" fill-rule="evenodd">
        <g fill="#0040A8" fill-rule="nonzero">
            <g>
                <path d="M18 1c1.582 0 2.903 1.173 2.995 2.688l.005.17v7.627l4.906 3.505c1.245.889 2.01 2.296 2.088 3.814l.006.254-.001 4.704 2.895 5.79c.23.46.074 1.01-.345 1.284l-.102.058c-.458.23-1.01.074-1.283-.345l-.058-.102-3-6c-.052-.104-.086-.216-.1-.331L26 24v-4.942c0-.904-.408-1.756-1.103-2.324l-.153-.117L21 13.943V17l-.007.115 1.98 1.586c.431.346.501.975.156 1.406-.319.398-.88.488-1.303.228l-.103-.073-4.348-3.481-.082-.074c-.038-.037-.438-.072-.721.02-.22.073-.39.242-.44.427-.073.273-.039.637 0 .745l.015.028 4.545 4.35c.034.034.062.065.088.098l-.088-.097c.038.037.073.076.105.118.022.03.043.06.062.092l.012.02c.015.027.03.056.043.085l.018.045c.012.03.023.062.032.094l.005.021.005.018.02.113L21 23v2.524c0 .157.037.311.107.45l1.797 3.566c.248.493.05 1.094-.443 1.343-.493.248-1.095.05-1.343-.443l-1.113-2.208c-.49.44-1.127.722-1.829.763L18 29H6c-1.598 0-2.904-1.249-2.995-2.824L3 26V3.857c0-.15.034-.299.1-.434.708-1.47 1.595-2.334 2.72-2.416L6 1h12zm0 2H6c-.227 0-.55.272-.923.95l-.078.144L5 26c0 .513.386.936.883.993L6 27h12c.513 0 .936-.386.993-.883L19 26v-2.573l-4.252-4.07c-.608-.608-.775-1.642-.592-2.533l.045-.188c.23-.858.904-1.533 1.75-1.81.866-.283 1.943-.212 2.625.348l.05.045.374.3v-3.518-8.144c0-.423-.372-.8-.88-.851L18 3zm-2.5 19c.828 0 1.5.672 1.5 1.5s-.672 1.5-1.5 1.5-1.5-.672-1.5-1.5.672-1.5 1.5-1.5zM12 10c1.485 0 2.866.653 3.81 1.762.358.42.307 1.052-.114 1.41-.42.357-1.052.306-1.41-.114C13.72 12.39 12.892 12 12 12c-1.657 0-3 1.343-3 3 0 1.523 1.141 2.8 2.639 2.979l.113.01.278.011c.552.017.986.478.97 1.03-.017.552-.478.986-1.03.97-.121-.004-.228-.009-.322-.014l-.247-.022C8.901 19.665 7 17.538 7 15c0-2.761 2.239-5 5-5zM8.5 5c.828 0 1.5.672 1.5 1.5S9.328 8 8.5 8 7 7.328 7 6.5 7.672 5 8.5 5z" transform="translate(-592 -4272) translate(592 4272)"/>
            </g>
        </g>
    </g>
</svg>
