<svg xmlns="http://www.w3.org/2000/svg" width="32" height="32" viewBox="0 0 32 32">
    <g fill="none" fill-rule="evenodd">
        <g fill="#0040A8" fill-rule="nonzero">
            <g>
                <path d="M3 18c.513 0 .936.386.993.883L4 19h5.955c1.991 0 3.574 1.68 3.986 3.869l.022.131h2.946c2.258 0 3.99 2.158 4.087 4.769L21 28c0 .513-.386.936-.883.993L20 29H3.968c-.11.432-.502.75-.968.75-.513 0-.936-.386-.993-.883L2 28.75V19c0-.552.448-1 1-1zm6.955 3H3.999v6h14.879l-.027-.104c-.302-1.073-1.026-1.818-1.817-1.89L16.91 25h-3.864l-.023-.001L13 25H9c-.552 0-1-.448-1-1 0-.513.386-.936.883-.993L9 23h2.925c-.284-1.129-1.029-1.92-1.845-1.994L9.955 21zM21 2c5.247 0 9.5 4.253 9.5 9.5S26.247 21 21 21s-9.5-4.253-9.5-9.5S15.753 2 21 2zm0 2c-4.142 0-7.5 3.358-7.5 7.5 0 4.142 3.358 7.5 7.5 7.5 4.142 0 7.5-3.358 7.5-7.5C28.5 7.358 25.142 4 21 4zm0 2c.513 0 .936.386.993.883L22 7v.135c.739.218 1.424.685 1.838 1.319.301.462.17 1.082-.292 1.384-.43.28-.994.187-1.314-.198l-.07-.094c-.207-.318-.72-.564-1.162-.544-.58 0-1 .367-1 .749 0 .353.358.693.869.743l.13.007c1.63 0 3.001 1.197 3.001 2.747 0 1.226-.857 2.233-2 2.6V16c0 .552-.448 1-1 1-.513 0-.936-.386-.993-.883L20 16v-.135c-.738-.218-1.424-.685-1.837-1.318-.302-.463-.172-1.083.29-1.384.43-.28.995-.188 1.315.196l.07.094c.207.32.719.564 1.162.545.58 0 1-.368 1-.75 0-.38-.42-.747-1-.747-1.63 0-3-1.2-3-2.75 0-1.227.858-2.233 2-2.6V7c0-.552.448-1 1-1z" transform="translate(-800 -4272) translate(800 4272)"/>
            </g>
        </g>
    </g>
</svg>
