<svg width="32" height="32" viewBox="0 0 32 32" fill="none" xmlns="http://www.w3.org/2000/svg">
<path fill-rule="evenodd" clip-rule="evenodd" d="M4.00006 23C4.55235 23 5.00006 23.4477 5.00006 24V26C5.00006 26.5523 5.44778 27 6.00006 27H10.0001C10.5523 27 11.0001 26.5523 11.0001 26V24C11.0001 23.4477 11.4478 23 12.0001 23C12.5523 23 13.0001 23.4477 13.0001 24V26C13.0001 27.6569 11.6569 29 10.0001 29H6.00006C4.34321 29 3.00006 27.6569 3.00006 26V24C3.00006 23.4477 3.44778 23 4.00006 23Z" fill="#0040A8"/>
<path fill-rule="evenodd" clip-rule="evenodd" d="M20.0001 23C20.5523 23 21.0001 23.4477 21.0001 24V26C21.0001 26.5523 21.4478 27 22.0001 27H26.0001C26.5523 27 27.0001 26.5523 27.0001 26V24C27.0001 23.4477 27.4478 23 28.0001 23C28.5523 23 29.0001 23.4477 29.0001 24V26C29.0001 27.6569 27.6569 29 26.0001 29H22.0001C20.3432 29 19.0001 27.6569 19.0001 26V24C19.0001 23.4477 19.4478 23 20.0001 23Z" fill="#0040A8"/>
<path fill-rule="evenodd" clip-rule="evenodd" d="M21.0001 18C21.0001 17.4477 21.4478 17 22.0001 17H26.0001C26.5523 17 27.0001 17.4477 27.0001 18C27.0001 18.5523 26.5523 19 26.0001 19H22.0001C21.4478 19 21.0001 18.5523 21.0001 18Z" fill="#0040A8"/>
<path fill-rule="evenodd" clip-rule="evenodd" d="M5.00006 18C5.00006 17.4477 5.44778 17 6.00006 17H10.0001C10.5523 17 11.0001 17.4477 11.0001 18C11.0001 18.5523 10.5523 19 10.0001 19H6.00006C5.44778 19 5.00006 18.5523 5.00006 18Z" fill="#0040A8"/>
<path fill-rule="evenodd" clip-rule="evenodd" d="M4.88673 11.5727C5.39921 11.2005 6.01635 11 6.64975 11H25.3504C25.9838 11 26.6009 11.2005 27.1134 11.5727L29.7631 13.4973C30.5402 14.0617 31.0001 14.9641 31.0001 15.9246V22C31.0001 23.6569 29.6569 25 28.0001 25H4.00006C2.34321 25 1.00006 23.6569 1.00006 22V15.9246C1.00006 14.9641 1.45993 14.0617 2.23704 13.4973L4.88673 11.5727ZM6.64975 13C6.43862 13 6.2329 13.0668 6.06207 13.1909L3.41239 15.1155C3.15335 15.3036 3.00006 15.6044 3.00006 15.9246V22C3.00006 22.5523 3.44778 23 4.00006 23H28.0001C28.5523 23 29.0001 22.5523 29.0001 22V15.9246C29.0001 15.6044 28.8468 15.3036 28.5877 15.1155L25.938 13.1909C25.7672 13.0668 25.5615 13 25.3504 13H6.64975Z" fill="#0040A8"/>
<path fill-rule="evenodd" clip-rule="evenodd" d="M10.7929 5C9.34305 5 8.10066 6.03687 7.8413 7.46335L6.98393 12.1789C6.88513 12.7223 6.36455 13.0827 5.82118 12.9839C5.2778 12.8851 4.9174 12.3645 5.01619 11.8211L5.87356 7.10558C6.30583 4.72812 8.37648 3 10.7929 3H21.2072C23.6236 3 25.6943 4.72812 26.1266 7.10557L26.9839 11.8211C27.0827 12.3645 26.7223 12.8851 26.1789 12.9839C25.6356 13.0827 25.115 12.7223 25.0162 12.1789L24.1588 7.46334C23.8995 6.03687 22.6571 5 21.2072 5H10.7929Z" fill="#0040A8"/>
</svg>
