<svg width="32" height="32" viewBox="0 0 32 32" fill="none" xmlns="http://www.w3.org/2000/svg">
<path fill-rule="evenodd" clip-rule="evenodd" d="M4.99997 7C4.99997 6.44772 5.44768 6 5.99997 6H26C26.5522 6 27 6.44771 27 7V11C27 11.5523 26.5522 12 26 12H25.5C24.9477 12 24.5 12.4477 24.5 13C24.5 13.5523 24.9477 14 25.5 14H26C27.6568 14 29 12.6569 29 11V7C29 5.34315 27.6568 4 26 4H5.99997C4.34312 4 2.99997 5.34315 2.99997 7V11C2.99997 12.6569 4.34311 14 5.99997 14H6.49997C7.05225 14 7.49997 13.5523 7.49997 13C7.49997 12.4477 7.05225 12 6.49997 12H5.99997C5.44768 12 4.99997 11.5523 4.99997 11V7ZM12.8007 8C11.2655 8 9.97794 9.15909 9.8172 10.6859L8.00545 27.8953C7.96657 28.2646 8.13554 28.6251 8.44428 28.8314C8.75302 29.0378 9.15068 29.056 9.47705 28.8789L12.5 27.2378L15.5229 28.8789C15.8204 29.0404 16.1795 29.0404 16.477 28.8789L19.5 27.2378L22.5229 28.8789C22.8492 29.056 23.2469 29.0378 23.5556 28.8314C23.8643 28.6251 24.0333 28.2646 23.9945 27.8953L22.1834 10.686C22.0228 9.15915 20.7352 8 19.1999 8H12.8007ZM11.8062 10.8953C11.8598 10.3864 12.289 10 12.8007 10H19.1999C19.7117 10 20.1409 10.3864 20.1944 10.8953L21.8065 26.2143L19.977 25.2211C19.6795 25.0596 19.3204 25.0596 19.0229 25.2211L16 26.8622L12.977 25.2211C12.6795 25.0596 12.3204 25.0596 12.0229 25.2211L10.1935 26.2142L11.8062 10.8953Z" fill="#0040A8"/>
</svg>
