<svg xmlns="http://www.w3.org/2000/svg" width="32" height="32" viewBox="0 0 32 32">
    <g fill="none" fill-rule="evenodd">
        <g fill="#0040A8" fill-rule="nonzero">
            <g>
                <path d="M26 5c1.598 0 2.904 1.249 2.995 2.824L29 8v12h2c.552 0 1 .448 1 1v1c0 2.761-2.239 5-5 5H5c-2.761 0-5-2.239-5-5v-1c0-.552.448-1 1-1h2V8c0-1.598 1.249-2.904 2.824-2.995L6 5h20zM12.017 22H2c0 1.598 1.249 2.904 2.824 2.995L5 25h22c1.657 0 3-1.343 3-3H19.982l-.052.07C18.997 23.278 17.55 24 16 24c-1.55 0-2.997-.723-3.93-1.93l-.053-.07zM26 7H6c-.513 0-.936.386-.993.883L5 8v12h7.555c.359 0 .69.192.868.504C13.95 21.429 14.935 22 16 22s2.049-.571 2.577-1.496c.178-.312.51-.504.868-.504H27V8c0-.513-.386-.936-.883-.993L26 7z" transform="translate(-384 -3353) translate(384 3353)"/>
            </g>
        </g>
    </g>
</svg>
