<svg xmlns="http://www.w3.org/2000/svg" width="32" height="32" viewBox="0 0 32 32">
    <g fill="none" fill-rule="evenodd">
        <g fill="#0040A8" fill-rule="nonzero">
            <g>
                <path d="M16 1c4.335 0 7.865 3.448 7.996 7.75L24 9v3c1.657 0 3 1.343 3 3v13c0 1.657-1.343 3-3 3H8c-1.657 0-3-1.343-3-3V15c0-1.657 1.343-3 3-3V9c0-4.418 3.582-8 8-8zm8 13H8c-.552 0-1 .448-1 1v13c0 .552.448 1 1 1h16c.552 0 1-.448 1-1V15c0-.552-.448-1-1-1zm-8 4c1.105 0 2 .895 2 2 0 .74-.402 1.386-.999 1.732L17 23c0 .552-.448 1-1 1-.513 0-.936-.386-.993-.883L15 23v-1.268c-.598-.345-1-.992-1-1.732 0-1.105.895-2 2-2zm0-15c-3.238 0-5.878 2.566-5.996 5.775L10 9v3h12V9c0-3.314-2.686-6-6-6z" transform="translate(-384 -1088) translate(384 1088)"/>
            </g>
        </g>
    </g>
</svg>
