<svg xmlns="http://www.w3.org/2000/svg" width="32" height="32" viewBox="0 0 32 32">
    <g fill="none" fill-rule="evenodd">
        <g fill="#0040A8" fill-rule="nonzero">
            <g>
                <path d="M22 1c1.657 0 3 1.343 3 3l.001 20.983V25l-.001.017V28c0 1.598-1.249 2.904-2.824 2.995L22 31H10c-1.657 0-3-1.343-3-3V4c0-1.657 1.343-3 3-3zm1 25H9v2c0 .513.386.936.883.993L10 29h12c.552 0 1-.448 1-1v-2zM22 3H10c-.552 0-1 .448-1 1v20h14V4c0-.513-.386-.936-.883-.993L22 3z" transform="translate(-800 -3353) translate(800 3353)"/>
                <path d="M17 4c.552 0 1 .448 1 1 0 .513-.386.936-.883.993L17 6h-2c-.552 0-1-.448-1-1 0-.513.386-.936.883-.993L15 4h2z" transform="translate(-800 -3353) translate(800 3353)"/>
            </g>
        </g>
    </g>
</svg>
