<svg xmlns="http://www.w3.org/2000/svg" width="32" height="32" viewBox="0 0 32 32">
    <g fill="none" fill-rule="evenodd">
        <g fill="#0040A8" fill-rule="nonzero">
            <g>
                <path d="M24 15c3.297 0 6 2.722 6 6 0 1.173-.587 2.592-1.631 4.268l-.365.568c-.19.29-.394.586-.608.89l-.445.616c-.154.208-.312.42-.476.636l-.504.655-.532.676C25.09 29.746 24.56 30 24 30s-1.09-.254-1.439-.69l-.531-.675-.504-.654-.474-.636-.445-.616-.211-.3-.398-.588C18.726 23.914 18 22.304 18 21c0-3.278 2.703-6 6-6zm0 2c-2.19 0-4 1.824-4 4 0 .778.568 2.002 1.523 3.491l.332.506.359.524.385.54.201.276.42.563.443.576.337.428.562-.72.432-.57.409-.556.385-.54.36-.525.331-.505c.901-1.406 1.457-2.573 1.516-3.354L28 21c0-2.176-1.81-4-4-4zM21.08 2.395l.191.078 6.146 2.744c.918.428 1.51 1.382 1.577 2.441l.006.2v5.418c0 .552-.448 1-1 1-.513 0-.936-.386-.993-.884L27 13.276V7.858c0-.348-.15-.644-.34-.78l-.074-.042L21 4.54 21 13c0 .552-.448 1-1 1-.513 0-.936-.386-.993-.883L19 13l-.001-8.382-5.657 2.83c-.112.055-.226.103-.342.144l-.001 17.79 2.554-1.276c.494-.247 1.094-.047 1.341.447.23.458.074 1.01-.345 1.283l-.102.058-3.105 1.553c-.78.39-1.687.42-2.486.09l-.198-.09-6-3c-.956-.478-1.581-1.426-1.651-2.484l-.007-.2V4.619c0-.31.072-.617.211-.894.47-.941 1.583-1.35 2.54-.96l.143.065 5.659 2.83c.241.12.519.137.77.051l.124-.052 6.26-3.13c.741-.37 1.6-.416 2.373-.133zM5 4.618v17.146c0 .337.17.648.445.832l.108.062 5.446 2.724V7.592c-.048-.017-.096-.035-.143-.055l-.198-.09L5 4.618zM24 19c1.105 0 2 .895 2 2s-.895 2-2 2-2-.895-2-2 .895-2 2-2z" transform="translate(-592 -2432) translate(592 2432)"/>
            </g>
        </g>
    </g>
</svg>
